<svg id="Layer_2" data-name="Layer 2" xmlns="http://www.w3.org/2000/svg" viewBox="0 0 76 56"><defs><style>.cls-1{fill:#13a89f;}</style></defs><path class="cls-1" d="M46.42,44.54a3.93,3.93,0,0,1-2.79-1.15l-1.87-1.87a1.23,1.23,0,0,1,1.74-1.74l1.86,1.87a1.5,1.5,0,0,0,2.56-1.06,1.48,1.48,0,0,0-.44-1.05L44.8,36.86a1.23,1.23,0,0,1,1.74-1.74l2.67,2.68a3.9,3.9,0,0,1,1.16,2.79,3.93,3.93,0,0,1-3.95,3.95Z"/><path class="cls-1" d="M44.19,50a3.93,3.93,0,0,1-2.8-1.16l-4.3-4.3a1.23,1.23,0,1,1,1.74-1.74l4.3,4.3a1.53,1.53,0,0,0,2.12,0,1.48,1.48,0,0,0,.44-1A1.5,1.5,0,0,0,45.25,45L41,40.71A1.23,1.23,0,0,1,42.68,39l4.3,4.3a3.95,3.95,0,0,1,0,5.59A3.89,3.89,0,0,1,44.19,50Z"/><path class="cls-1" d="M39.53,53.06a4,4,0,0,1-2.8-1.16l-4.57-4.57a1.23,1.23,0,0,1,1.74-1.74l4.57,4.57a1.48,1.48,0,0,0,2.11,0,1.44,1.44,0,0,0,.44-1,1.46,1.46,0,0,0-.44-1.06L36,43.48a1.23,1.23,0,1,1,1.74-1.74l4.57,4.57a4,4,0,0,1-2.79,6.75Z"/><path class="cls-1" d="M32.34,54a3.86,3.86,0,0,1-2.75-1.13L27.67,51a1.23,1.23,0,1,1,1.74-1.74l1.92,1.92a1.46,1.46,0,0,0,1.06.41A1.69,1.69,0,0,0,33.55,51a1.57,1.57,0,0,0,.1-2.21l-2.57-2.57a1.23,1.23,0,1,1,1.74-1.74l2.57,2.57a4,4,0,0,1-.11,5.69A4.13,4.13,0,0,1,32.45,54Z"/><path class="cls-1" d="M45.67,37.22a1.22,1.22,0,0,1-.87-.36L31.41,23.46a1.22,1.22,0,1,1,1.73-1.73l13.4,13.39a1.23,1.23,0,0,1-.87,2.1Z"/><path class="cls-1" d="M12.81,35.58a1.24,1.24,0,0,1-.87-.36L.5,23.78A1.22,1.22,0,0,1,.51,22l12-11.88a1.22,1.22,0,0,1,1.73,0l5,5a25,25,0,0,1,11.3.35,1.23,1.23,0,1,1-.69,2.36,22.75,22.75,0,0,0-10.7-.17A1.27,1.27,0,0,1,18,17.4l-4.63-4.64L3.12,22.92,13.68,33.48a1.23,1.23,0,0,1,0,1.74A1.22,1.22,0,0,1,12.81,35.58Z"/><path class="cls-1" d="M25.49,53.27a3.84,3.84,0,0,1-2.72-1.12L22.62,52a3.85,3.85,0,0,1,0-5.43L25,44.16a3.84,3.84,0,0,1,5.43,0h0l.16.15a3.86,3.86,0,0,1,0,5.44l-2.41,2.4A3.82,3.82,0,0,1,25.49,53.27Zm2.24-7.78a1.38,1.38,0,0,0-1,.4l-2.4,2.41a1.38,1.38,0,0,0,0,2l.16.16a1.43,1.43,0,0,0,2,0l2.4-2.4a1.4,1.4,0,0,0,0-2l-.16-.16A1.37,1.37,0,0,0,27.73,45.49Z"/><path class="cls-1" d="M21,49.4a3.84,3.84,0,0,1-2.72-1.12l-.15-.16a3.84,3.84,0,0,1,0-5.43l3.43-3.44a4,4,0,0,1,5.44,0l.15.16a3.84,3.84,0,0,1,0,5.43l-3.43,3.44A3.84,3.84,0,0,1,21,49.4Zm3.28-8.82a1.39,1.39,0,0,0-1,.41l-3.43,3.43a1.39,1.39,0,0,0,0,2l.15.16a1.43,1.43,0,0,0,2,0l3.44-3.44a1.39,1.39,0,0,0,0-2L25.28,41h0A1.39,1.39,0,0,0,24.3,40.58Z"/><path class="cls-1" d="M13.32,41.7a3.83,3.83,0,0,1-2.72-1.13l-.15-.15a3.85,3.85,0,0,1,0-5.44l3.43-3.43a3.93,3.93,0,0,1,5.43,0l.16.15a3.85,3.85,0,0,1,0,5.44L16,40.57A3.85,3.85,0,0,1,13.32,41.7Zm3.28-8.82a1.34,1.34,0,0,0-1,.41l-3.44,3.43a1.39,1.39,0,0,0,0,2l.16.15a1.39,1.39,0,0,0,2,0l3.43-3.43a1.39,1.39,0,0,0,0-2l-.15-.15A1.36,1.36,0,0,0,16.6,32.88Z"/><path class="cls-1" d="M16.46,46.26a3.79,3.79,0,0,1-2.71-1.13L13.59,45a3.85,3.85,0,0,1,0-5.44l4.85-4.85a3.86,3.86,0,0,1,5.43,0h0l.15.16a3.85,3.85,0,0,1,0,5.43l-4.85,4.85A3.81,3.81,0,0,1,16.46,46.26ZM21.16,36a1.37,1.37,0,0,0-1,.4l-4.85,4.85a1.39,1.39,0,0,0,0,2l.15.15a1.41,1.41,0,0,0,2,0l4.85-4.85a1.36,1.36,0,0,0,0-1.95l-.15-.16A1.38,1.38,0,0,0,21.16,36Z"/><path class="cls-1" d="M44.86,35.6a1.22,1.22,0,0,1-.87-.36,1.23,1.23,0,0,1,0-1.74L56.9,20.58,47.3,11l-8.93,9.17a1.23,1.23,0,0,1-1.58.16c-1.61-1.11-6.32-3.57-8.72-1.7a50,50,0,0,1-5,3.41,1.86,1.86,0,0,0-.73,2.37,1.84,1.84,0,0,0,1.09,1,1.86,1.86,0,0,0,1.48-.11l6.41-3.36a1.23,1.23,0,1,1,1.14,2.18L26,27.45a4.33,4.33,0,0,1-4.24-7.54,48,48,0,0,0,4.78-3.24C30,14,35.23,16.52,37.3,17.73l9.11-9.36A1.23,1.23,0,0,1,47.28,8a1.27,1.27,0,0,1,.88.36L59.51,19.71a1.23,1.23,0,0,1,0,1.74L45.73,35.24A1.24,1.24,0,0,1,44.86,35.6Z"/></svg>