<svg id="Layer_2" data-name="Layer 2" xmlns="http://www.w3.org/2000/svg" viewBox="0 0 53 38"><defs><style>.cls-1{fill:#0ba79d;}</style></defs><path class="cls-1" d="M18.11,37.94A17.75,17.75,0,1,1,27.88,5.37,1,1,0,1,1,26.77,7a15.75,15.75,0,1,0,4.14,4,1,1,0,0,1,.23-1.4,1,1,0,0,1,1.39.23A17.74,17.74,0,0,1,18.11,37.94Z"/><path class="cls-1" d="M18.11,32.38a12.19,12.19,0,1,1,8.61-3.57h0A12.1,12.1,0,0,1,18.11,32.38Zm0-22.36a10.18,10.18,0,1,0,7.2,17.38h0A10.18,10.18,0,0,0,18.11,10Z"/><path class="cls-1" d="M18.11,26.69a6.5,6.5,0,1,1,4.59-1.9A6.45,6.45,0,0,1,18.11,26.69Zm0-11A4.5,4.5,0,1,0,21.29,17,4.5,4.5,0,0,0,18.11,15.7Z"/><path class="cls-1" d="M17.89,21.3a1,1,0,0,1-.7-.29,1,1,0,0,1,0-1.41l8.9-8.91a1,1,0,0,1,1.42,0,1,1,0,0,1,0,1.41L18.6,21A1,1,0,0,1,17.89,21.3Z"/><path class="cls-1" d="M31.15,12h0l-3.76-.2a1,1,0,0,1-.94-.91L26.07,7a1,1,0,0,1,.29-.79l5-5a1.8,1.8,0,0,1,3.07,1.23l0,.91,1.48.16A1.8,1.8,0,0,1,37,6.55l-5.16,5.16A1,1,0,0,1,31.15,12ZM28.32,9.85l2.44.13,4.55-4.55-1.93-.21a1,1,0,0,1-.9-1l0-1.32L28.1,7.29Z"/></svg>