<svg id="Layer_2" data-name="Layer 2" xmlns="http://www.w3.org/2000/svg" viewBox="0 0 53 38"><defs><style>.cls-1{fill:#0ba79d;}</style></defs><path class="cls-1" d="M20.11,31.47H17.28a.86.86,0,0,1-.86-.87V3.28a2.28,2.28,0,1,1,4.55,0V30.6A.86.86,0,0,1,20.11,31.47Zm-2-1.73h1.09V3.28a.55.55,0,1,0-1.09,0Z"/><path class="cls-1" d="M16.84,8.44H7.51a.87.87,0,0,1,0-1.73h9.33a.87.87,0,1,1,0,1.73Z"/><path class="cls-1" d="M29.28,8.44H20.73a.87.87,0,1,1,0-1.73h8.55a.87.87,0,1,1,0,1.73Z"/><path class="cls-1" d="M29.47,34H7.91a1.38,1.38,0,0,1-1.35-1.4V31.14a1.38,1.38,0,0,1,1.35-1.4H29.47a1.38,1.38,0,0,1,1.36,1.4V32.6A1.38,1.38,0,0,1,29.47,34ZM8.29,32.27H29.1v-.8H8.29Zm21.18-.8h0Z"/><path class="cls-1" d="M11.87,22a.81.81,0,0,1-.76-.54l-4-11.71L2.07,21.52A.8.8,0,1,1,.6,20.88L6.5,7.2A.79.79,0,0,1,8,7.26l4.64,13.68a.8.8,0,0,1-.5,1A.78.78,0,0,1,11.87,22Z"/><path class="cls-1" d="M6.6,27A5.88,5.88,0,0,1,.53,21.2a.8.8,0,0,1,.81-.8H11.87a.8.8,0,0,1,.8.8A5.87,5.87,0,0,1,6.6,27ZM2.21,22A4.29,4.29,0,0,0,6.6,25.4,4.29,4.29,0,0,0,11,22Z"/><path class="cls-1" d="M25.31,22a.78.78,0,0,1-.26,0,.8.8,0,0,1-.5-1L29.19,7.26a.79.79,0,0,1,1.49-.06l5.9,13.68a.8.8,0,1,1-1.47.64L30,9.75l-4,11.71A.81.81,0,0,1,25.31,22Z"/><path class="cls-1" d="M30.58,27a5.87,5.87,0,0,1-6.07-5.8.8.8,0,0,1,.8-.8H35.85a.8.8,0,0,1,.8.8A5.88,5.88,0,0,1,30.58,27Zm-4.39-5a4.27,4.27,0,0,0,4.39,3.4A4.29,4.29,0,0,0,35,22Z"/></svg>